<svg width="419" height="418" viewBox="0 0 419 418" fill="none" xmlns="http://www.w3.org/2000/svg">
<path d="M348.425 360.595C341.273 353.18 332.458 347.574 322.71 344.24C326.863 343.509 340.544 343.997 341.032 337.152C341.52 330.307 321.003 330.307 321.003 330.307C321.003 330.307 364.492 283.395 364.492 255.294C376.222 256.025 382.336 246.977 371.825 232.565C381.108 234.272 382.092 215.209 369.386 209.836C362.785 179.775 323.197 165.598 323.197 165.598C323.197 165.598 312.686 103.769 262.1 84.9585C211.513 66.1485 143.335 100.843 135.271 110.622C135.759 90.5841 102.772 70.0586 84.1971 97.4201C65.6222 124.782 77.6049 148.016 102.772 149.235C93.5816 158.886 86.8726 170.624 83.2217 183.441C83.2217 183.441 49.0067 210.08 47.7875 231.093C47.4392 237.067 51.236 239.645 56.8442 240.272C48.0314 245.758 41.9268 262.373 60.9894 272.397C64.1044 279.814 68.7689 286.479 74.6702 291.947C74.6702 291.947 51.0532 291.808 51.9414 299.523C52.6729 305.88 63.4364 304.4 63.4364 304.4C54.3351 308.697 46.125 314.67 39.236 322.008" stroke="black" stroke-linecap="round" stroke-linejoin="round"/>
<path d="M288.738 169.395C293.319 134.561 267.481 105.423 252.268 99.7453C247.007 97.4883 241.091 97.2912 235.692 99.1931C230.293 101.095 225.806 104.957 223.121 110.012C211.025 99.5624 189.037 93.693 177.124 109.455C165.211 125.217 151.277 151.246 173.275 191.383" stroke="black" stroke-linecap="round" stroke-linejoin="round"/>
<path d="M233.388 169.394C256.248 166.895 321.543 170.492 326.681 206.962C331.819 243.433 279.934 275.558 250.822 276.864C205.922 278.884 149.449 248.936 149.449 228.045C149.449 207.154 189.759 174.158 233.388 169.394Z" stroke="black" stroke-linecap="round" stroke-linejoin="round"/>
<path d="M164.592 249.555C166.796 259.569 181.835 303.189 205.043 305.993C228.25 308.797 248.41 276.96 248.41 276.96" stroke="black" stroke-linecap="round" stroke-linejoin="round"/>
<path d="M180.137 285.86C184.298 283.27 189.122 281.946 194.022 282.049C198.922 282.153 203.686 283.68 207.733 286.443C213.35 282.864 226.543 288.507 228.808 298.165M286.413 99.2925C289.017 93.1444 294.129 62.3865 262.161 57.7711C236.14 54.0178 239.327 79.9251 239.327 79.9251M206.506 204.707C206.506 213.642 237.42 246.246 259.905 246.246C282.39 246.246 304.622 229.752 304.622 194.196C304.622 173.183 265.156 166.582 249.882 172.077C234.607 177.572 206.506 185.4 206.506 204.707Z" stroke="black" stroke-linecap="round" stroke-linejoin="round"/>
<path d="M202.717 166.582C207.912 166.582 212.122 162.371 212.122 157.177C212.122 151.982 207.912 147.772 202.717 147.772C197.523 147.772 193.312 151.982 193.312 157.177C193.312 162.371 197.523 166.582 202.717 166.582Z" stroke="black" stroke-linecap="round" stroke-linejoin="round"/>
<path d="M241.086 163.891C245.607 163.891 249.272 160.226 249.272 155.705C249.272 151.184 245.607 147.519 241.086 147.519C236.566 147.519 232.901 151.184 232.901 155.705C232.901 160.226 236.566 163.891 241.086 163.891Z" stroke="black" stroke-linecap="round" stroke-linejoin="round"/>
<path d="M166.552 96.8105C168.592 91.6813 172.444 87.4794 177.377 85.0025C182.31 82.5255 187.98 81.9459 193.313 83.3736M229.234 72.8626C240.196 76.1441 250.099 82.2565 257.946 90.5841" stroke="black" stroke-linecap="round" stroke-linejoin="round"/>
</svg>
