<svg width="191" height="191" viewBox="0 0 191 191" fill="none" xmlns="http://www.w3.org/2000/svg">
<path d="M139.271 143.25C137.016 143.25 135.125 142.486 133.597 140.958C132.069 139.43 131.307 137.541 131.313 135.292V55.7084C131.313 53.4535 132.077 51.5621 133.605 50.0341C135.133 48.5061 137.021 47.7447 139.271 47.75C141.526 47.75 143.417 48.514 144.945 50.042C146.473 51.57 147.234 53.4588 147.229 55.7084V135.292C147.229 137.547 146.465 139.438 144.937 140.966C143.409 142.494 141.52 143.255 139.271 143.25ZM56.1063 135.093C53.4535 136.95 50.7344 137.082 47.949 135.491C45.1636 133.899 43.7708 131.511 43.7708 128.328V62.6719C43.7708 59.4886 45.1636 57.1011 47.949 55.5094C50.7344 53.9177 53.4535 54.0504 56.1063 55.9073L105.448 88.9344C107.835 90.5261 109.029 92.7146 109.029 95.5C109.029 98.2854 107.835 100.474 105.448 102.066L56.1063 135.093ZM59.6875 113.406L86.7458 95.5L59.6875 77.5938V113.406Z" fill="black"/>
</svg>
