<svg width="100" height="100" viewBox="0 0 100 100" fill="none" xmlns="http://www.w3.org/2000/svg">
<path d="M50 91.6667C26.9875 91.6667 8.33331 73.0125 8.33331 50C8.33331 26.9875 26.9875 8.33334 50 8.33334C73.0125 8.33334 91.6666 26.9875 91.6666 50C91.6666 73.0125 73.0125 91.6667 50 91.6667ZM33.3333 58.3333V66.6667H66.6666V58.3333H33.3333ZM33.3333 45.8333C34.9909 45.8333 36.5806 45.1749 37.7527 44.0028C38.9248 42.8307 39.5833 41.2409 39.5833 39.5833C39.5833 37.9257 38.9248 36.336 37.7527 35.1639C36.5806 33.9918 34.9909 33.3333 33.3333 33.3333C31.6757 33.3333 30.086 33.9918 28.9139 35.1639C27.7418 36.336 27.0833 37.9257 27.0833 39.5833C27.0833 41.2409 27.7418 42.8307 28.9139 44.0028C30.086 45.1749 31.6757 45.8333 33.3333 45.8333ZM66.6666 45.8333C68.3242 45.8333 69.914 45.1749 71.0861 44.0028C72.2582 42.8307 72.9166 41.2409 72.9166 39.5833C72.9166 37.9257 72.2582 36.336 71.0861 35.1639C69.914 33.9918 68.3242 33.3333 66.6666 33.3333C65.009 33.3333 63.4193 33.9918 62.2472 35.1639C61.0751 36.336 60.4166 37.9257 60.4166 39.5833C60.4166 41.2409 61.0751 42.8307 62.2472 44.0028C63.4193 45.1749 65.009 45.8333 66.6666 45.8333Z" fill="#475569"/>
</svg>
