<svg width="191" height="191" viewBox="0 0 191 191" fill="none" xmlns="http://www.w3.org/2000/svg">
<path d="M51.7292 143.25C53.984 143.25 55.8755 142.486 57.4035 140.958C58.9314 139.43 59.6928 137.541 59.6875 135.292V55.7084C59.6875 53.4535 58.9235 51.5621 57.3955 50.0341C55.8675 48.5061 53.9787 47.7447 51.7292 47.75C49.4743 47.75 47.5829 48.514 46.0549 50.042C44.5269 51.57 43.7655 53.4588 43.7708 55.7084V135.292C43.7708 137.547 44.5348 139.438 46.0628 140.966C47.5908 142.494 49.4796 143.255 51.7292 143.25ZM134.894 135.093C137.547 136.95 140.266 137.082 143.051 135.491C145.836 133.899 147.229 131.511 147.229 128.328V62.6719C147.229 59.4886 145.836 57.1011 143.051 55.5094C140.266 53.9177 137.547 54.0504 134.894 55.9073L85.5521 88.9344C83.1646 90.5261 81.9708 92.7146 81.9708 95.5C81.9708 98.2854 83.1646 100.474 85.5521 102.066L134.894 135.093ZM131.312 113.406L104.254 95.5L131.312 77.5938V113.406Z" fill="black"/>
</svg>
