<svg width="175" height="219" viewBox="0 0 175 219" fill="none" xmlns="http://www.w3.org/2000/svg">
<path d="M1.60875 22.5V22.5006L1.5 196.5C1.5 196.5 1.5 196.5 1.5 196.501M1.60875 22.5L168.084 59.6925C172.216 63.7163 174.5 69.2625 174.5 75.0263V196.5C174.5 208.462 164.712 218.25 152.75 218.25H22.1412C10.1787 218.25 0.5 208.462 0.5 196.5L1.5 196.501M1.60875 22.5C1.60875 11.0832 10.8463 1.75 22.25 1.75H100.224C105.724 1.75 111.01 3.92942 114.841 7.86387L114.841 7.86393L114.85 7.87336L167.377 60.3997L167.386 60.409C171.321 64.2399 173.5 69.5257 173.5 75.0263V196.5C173.5 207.91 164.16 217.25 152.75 217.25H22.1412C10.7378 217.25 1.50034 207.917 1.5 196.501M1.60875 22.5L1.5 196.501M99.0821 16.3554L97.375 14.6483V17.0625V66C97.375 72.5335 102.716 77.875 109.25 77.875H158.188H160.602L158.895 76.1679L99.0821 16.3554Z" fill="white" stroke="black" stroke-width="2"/>
</svg>
