<svg width="100" height="100" viewBox="0 0 100 100" fill="none" xmlns="http://www.w3.org/2000/svg">
<path fill-rule="evenodd" clip-rule="evenodd" d="M32.36 14.3067C32.6704 14.6163 32.9167 14.9842 33.0848 15.3891C33.2528 15.7941 33.3393 16.2282 33.3393 16.6667C33.3393 17.1051 33.2528 17.5393 33.0848 17.9442C32.9167 18.3492 32.6704 18.717 32.36 19.0267L24.7133 26.6667H60C67.9565 26.6667 75.5871 29.8274 81.2132 35.4535C86.8393 41.0796 90 48.7102 90 56.6667C90 64.6232 86.8393 72.2538 81.2132 77.8799C75.5871 83.506 67.9565 86.6667 60 86.6667H33.3333C32.4493 86.6667 31.6014 86.3155 30.9763 85.6904C30.3512 85.0653 30 84.2174 30 83.3334C30 82.4493 30.3512 81.6014 30.9763 80.9763C31.6014 80.3512 32.4493 80 33.3333 80H60C66.1884 80 72.1233 77.5417 76.4992 73.1658C80.875 68.79 83.3333 62.8551 83.3333 56.6667C83.3333 50.4783 80.875 44.5434 76.4992 40.1675C72.1233 35.7917 66.1884 33.3334 60 33.3334H24.7133L32.36 40.9733C32.6699 41.2833 32.9158 41.6512 33.0835 42.0561C33.2512 42.4611 33.3375 42.8951 33.3375 43.3333C33.3375 43.7716 33.2512 44.2056 33.0835 44.6106C32.9158 45.0155 32.6699 45.3834 32.36 45.6933C32.0501 46.0033 31.6822 46.2491 31.2772 46.4168C30.8723 46.5846 30.4383 46.6709 30 46.6709C29.5617 46.6709 29.1277 46.5846 28.7228 46.4168C28.3178 46.2491 27.9499 46.0033 27.64 45.6933L14.3067 32.36C13.9962 32.0504 13.75 31.6825 13.5819 31.2776C13.4139 30.8726 13.3274 30.4385 13.3274 30C13.3274 29.5616 13.4139 29.1274 13.5819 28.7225C13.75 28.3175 13.9962 27.9497 14.3067 27.64L27.64 14.3067C27.9496 13.9963 28.3175 13.75 28.7224 13.5819C29.1274 13.4139 29.5616 13.3274 30 13.3274C30.4384 13.3274 30.8726 13.4139 31.2776 13.5819C31.6825 13.75 32.0504 13.9963 32.36 14.3067Z" fill="#475569"/>
</svg>
