<svg width="100" height="100" viewBox="0 0 100 100" fill="none" xmlns="http://www.w3.org/2000/svg">
<path opacity="0.3" d="M75 25C77.3012 25 79.1667 23.1345 79.1667 20.8334C79.1667 18.5322 77.3012 16.6667 75 16.6667C72.6989 16.6667 70.8334 18.5322 70.8334 20.8334C70.8334 23.1345 72.6989 25 75 25Z" fill="#475569"/>
<path opacity="0.3" d="M25 54.1666C27.3012 54.1666 29.1667 52.3012 29.1667 50C29.1667 47.6988 27.3012 45.8333 25 45.8333C22.6989 45.8333 20.8334 47.6988 20.8334 50C20.8334 52.3012 22.6989 54.1666 25 54.1666Z" fill="#475569"/>
<path opacity="0.3" d="M75 83.4166C77.3012 83.4166 79.1667 81.5512 79.1667 79.25C79.1667 76.9488 77.3012 75.0833 75 75.0833C72.6989 75.0833 70.8334 76.9488 70.8334 79.25C70.8334 81.5512 72.6989 83.4166 75 83.4166Z" fill="#475569"/>
<path d="M75 67C71.8333 67 69 68.25 66.8333 70.2083L37.125 52.9166C37.3333 51.9583 37.5 51 37.5 50C37.5 49 37.3333 48.0416 37.125 47.0833L66.5 29.9583C68.75 32.0416 71.7083 33.3333 75 33.3333C81.9167 33.3333 87.5 27.75 87.5 20.8333C87.5 13.9166 81.9167 8.33331 75 8.33331C68.0833 8.33331 62.5 13.9166 62.5 20.8333C62.5 21.8333 62.6667 22.7916 62.875 23.75L33.5 40.875C31.25 38.7916 28.2917 37.5 25 37.5C18.0833 37.5 12.5 43.0833 12.5 50C12.5 56.9166 18.0833 62.5 25 62.5C28.2917 62.5 31.25 61.2083 33.5 59.125L63.1667 76.4583C62.9583 77.3333 62.8333 78.25 62.8333 79.1666C62.8333 85.875 68.2917 91.3333 75 91.3333C81.7083 91.3333 87.1667 85.875 87.1667 79.1666C87.1667 72.4583 81.7083 67 75 67ZM75 16.6666C77.2917 16.6666 79.1667 18.5416 79.1667 20.8333C79.1667 23.125 77.2917 25 75 25C72.7083 25 70.8333 23.125 70.8333 20.8333C70.8333 18.5416 72.7083 16.6666 75 16.6666ZM25 54.1666C22.7083 54.1666 20.8333 52.2916 20.8333 50C20.8333 47.7083 22.7083 45.8333 25 45.8333C27.2917 45.8333 29.1667 47.7083 29.1667 50C29.1667 52.2916 27.2917 54.1666 25 54.1666ZM75 83.4166C72.7083 83.4166 70.8333 81.5416 70.8333 79.25C70.8333 76.9583 72.7083 75.0833 75 75.0833C77.2917 75.0833 79.1667 76.9583 79.1667 79.25C79.1667 81.5416 77.2917 83.4166 75 83.4166Z" fill="#475569"/>
</svg>
