<svg width="100" height="100" viewBox="0 0 100 100" fill="none" xmlns="http://www.w3.org/2000/svg">
<path d="M50 91.6667C26.9875 91.6667 8.33333 73.0125 8.33333 50C8.33333 26.9875 26.9875 8.33334 50 8.33334C73.0125 8.33334 91.6667 26.9875 91.6667 50C91.6667 73.0125 73.0125 91.6667 50 91.6667ZM29.1667 70.8333H37.5C37.5 67.5181 38.817 64.3387 41.1612 61.9945C43.5054 59.6503 46.6848 58.3333 50 58.3333C53.3152 58.3333 56.4946 59.6503 58.8388 61.9945C61.183 64.3387 62.5 67.5181 62.5 70.8333H70.8333C70.8333 65.308 68.6384 60.009 64.7314 56.102C60.8244 52.1949 55.5253 50 50 50C44.4747 50 39.1756 52.1949 35.2686 56.102C31.3616 60.009 29.1667 65.308 29.1667 70.8333ZM33.3333 45.8333C34.9909 45.8333 36.5806 45.1749 37.7527 44.0028C38.9248 42.8307 39.5833 41.2409 39.5833 39.5833C39.5833 37.9257 38.9248 36.336 37.7527 35.1639C36.5806 33.9918 34.9909 33.3333 33.3333 33.3333C31.6757 33.3333 30.086 33.9918 28.9139 35.1639C27.7418 36.336 27.0833 37.9257 27.0833 39.5833C27.0833 41.2409 27.7418 42.8307 28.9139 44.0028C30.086 45.1749 31.6757 45.8333 33.3333 45.8333ZM66.6667 45.8333C68.3243 45.8333 69.914 45.1749 71.0861 44.0028C72.2582 42.8307 72.9167 41.2409 72.9167 39.5833C72.9167 37.9257 72.2582 36.336 71.0861 35.1639C69.914 33.9918 68.3243 33.3333 66.6667 33.3333C65.0091 33.3333 63.4193 33.9918 62.2472 35.1639C61.0751 36.336 60.4167 37.9257 60.4167 39.5833C60.4167 41.2409 61.0751 42.8307 62.2472 44.0028C63.4193 45.1749 65.0091 45.8333 66.6667 45.8333Z" fill="#475569"/>
</svg>
