<svg width="100" height="100" viewBox="0 0 100 100" fill="none" xmlns="http://www.w3.org/2000/svg">
<path d="M50 8.33334C73.0125 8.33334 91.6667 26.9875 91.6667 50C91.6667 73.0125 73.0125 91.6667 50 91.6667C26.9875 91.6667 8.33337 73.0125 8.33337 50C8.33337 26.9875 26.9875 8.33334 50 8.33334ZM50 45.8333C41.6667 45.8333 34.7209 47.2208 29.1667 50C29.1667 55.5254 31.3616 60.8244 35.2686 64.7314C39.1757 68.6384 44.4747 70.8333 50 70.8333C55.5254 70.8333 60.8244 68.6384 64.7314 64.7314C68.6384 60.8244 70.8334 55.5254 70.8334 50C65.2792 47.2208 58.3334 45.8333 50 45.8333ZM35.4167 29.1667C30.6167 29.1667 26.575 32.4167 25.3667 36.8333L25.2084 37.5H45.625C45.1448 35.1472 43.8663 33.0325 42.0061 31.514C40.1458 29.9954 37.8181 29.1662 35.4167 29.1667ZM64.5834 29.1667C59.7834 29.1667 55.7417 32.4167 54.5334 36.8333L54.375 37.5H74.7917C74.3114 35.1472 73.033 33.0325 71.1728 31.514C69.3125 29.9954 66.9847 29.1662 64.5834 29.1667Z" fill="#475569"/>
</svg>
